<svg xmlns="http://www.w3.org/2000/svg" viewBox="0 0 170.33 197.61">
  <path fill="#9c182f" fill-rule="nonzero" d="m108.59,180.81l0,-65.04c0,-0.38 0.31,-0.69 0.69,-0.69l48.05,-0c0.38,-0 0.68,0.31 0.66,0.69C156.63,146.09 136.65,171.66 109.24,181.28 108.88,181.4 108.59,181.19 108.59,180.81m-34.59,2.99l0,-68.03c0,-0.38 0.31,-0.69 0.69,-0.69l20.95,-0c0.38,-0 0.69,0.31 0.69,0.69L96.33,183.81c0,0.38 -0.31,0.74 -0.68,0.79 -3.42,0.49 -6.91,0.75 -10.47,0.75 -3.56,-0 -7.06,-0.25 -10.49,-0.75 -0.38,-0.05 -0.68,-0.41 -0.68,-0.79m-61,-68.72l48.06,-0c0.38,-0 0.69,0.31 0.69,0.69L61.75,180.81c0,0.38 -0.29,0.59 -0.65,0.46 -27.42,-9.62 -47.4,-35.19 -48.76,-65.5 -0.02,-0.38 0.28,-0.69 0.66,-0.69m17.69,-73.74L30.68,82.75c0,0.38 0.31,0.69 0.69,0.69l5.44,-0c9.41,-0 16.37,-2.29 21.95,-4.12 8.3,-2.74 13.31,-4.38 23.34,1.41l2.47,1.43c0.33,0.19 0.86,0.19 1.19,-0l2.46,-1.43c10.03,-5.79 15.05,-4.15 23.34,-1.41 5.59,1.82 12.54,4.12 21.95,4.12l5.43,-0c0.38,-0 0.69,-0.31 0.69,-0.69l0,-41.41c0,-0.38 0.31,-0.69 0.69,-0.69l17.06,-0c0.38,-0 0.69,0.31 0.69,0.69L158.08,102.15c0,0.38 -0.31,0.69 -0.69,0.69L12.94,102.84c-0.38,-0 -0.69,-0.31 -0.69,-0.69l0,-60.8c0,-0.38 0.31,-0.69 0.69,-0.69l17.06,-0c0.38,-0 0.69,0.31 0.69,0.69M127.39,19.22L127.39,70.08c0,0.38 -0.31,0.65 -0.68,0.59 -4.21,-0.66 -7.8,-1.83 -11.32,-2.98 -6.89,-2.27 -13.97,-4.59 -23.43,-1.87 -0.37,0.11 -0.66,-0.11 -0.66,-0.49l0,-50.08c0,-0.38 0.28,-0.82 0.63,-0.98 7.71,-3.45 12.44,-1.9 19.65,0.49 4.15,1.35 9.04,2.96 15.14,3.71 0.38,0.05 0.69,0.39 0.69,0.77m-83.76,-0.77c6.08,-0.74 10.98,-2.36 15.12,-3.71 7.22,-2.38 11.95,-3.93 19.65,-0.49 0.35,0.15 0.63,0.6 0.63,0.98L79.03,65.32c0,0.38 -0.29,0.6 -0.66,0.49 -9.46,-2.72 -16.54,-0.4 -23.43,1.87 -3.51,1.15 -7.09,2.32 -11.31,2.98 -0.38,0.06 -0.68,-0.21 -0.68,-0.59l0,-50.86c0,-0.38 0.31,-0.72 0.68,-0.77m96.01,9.25l0,-20.42c0,-0.38 -0.31,-0.69 -0.69,-0.69l-5.43,-0c-7.45,-0 -12.87,-1.78 -18.13,-3.51 -8.32,-2.72 -16.91,-5.55 -29.59,0.52 -0.34,0.17 -0.9,0.16 -1.24,-0 -12.7,-6.07 -21.29,-3.24 -29.61,-0.52 -5.26,1.73 -10.69,3.51 -18.13,3.51l-5.44,-0c-0.38,-0 -0.69,0.31 -0.69,0.69L30.68,27.71c0,0.38 -0.31,0.69 -0.69,0.69l-29.31,-0c-0.38,-0 -0.69,0.31 -0.69,0.69L0,112.44c0,46.96 38.21,85.17 85.17,85.17 46.95,-0 85.16,-38.21 85.16,-85.17l0,-83.36c0,-0.38 -0.31,-0.69 -0.69,-0.69l-29.31,-0c-0.38,-0 -0.69,-0.31 -0.69,-0.69"/>
</svg>
