<svg xmlns="http://www.w3.org/2000/svg" viewBox="0 0 314.17 97.06" width="314.17" height="97.06" role="img" aria-label="IRBS logo">
  <!-- Shield/Torch icon -->
  <path fill="#9c182f" fill-rule="nonzero" d="m77.64,20.31l0,29.86c0,0.19 -0.15,0.34 -0.34,0.34l-70.95,-0c-0.19,-0 -0.34,-0.15 -0.34,-0.34L6.02,20.31c0,-0.19 0.15,-0.34 0.34,-0.34l8.38,-0c0.19,-0 0.34,0.15 0.34,0.34l0,20.34c0,0.19 0.15,0.34 0.34,0.34l2.67,-0c4.62,-0 8.04,-1.13 10.78,-2.02 4.08,-1.34 6.54,-2.15 11.47,0.69l1.21,0.7c0.16,0.09 0.42,0.09 0.59,-0l1.21,-0.7c4.93,-2.84 7.39,-2.04 11.47,-0.69 2.75,0.89 6.16,2.02 10.78,2.02l2.67,-0c0.19,-0 0.34,-0.15 0.34,-0.34L68.58,20.31c0,-0.19 0.15,-0.34 0.34,-0.34l8.38,-0C77.49,19.97 77.64,20.12 77.64,20.31m-24.31,68.5l0,-31.94c0,-0.19 0.15,-0.34 0.34,-0.34l23.6,-0c0.19,-0 0.33,0.15 0.32,0.34 -0.67,14.89 -10.48,27.45 -23.94,32.17 -0.18,0.06 -0.32,-0.04 -0.32,-0.23m-6.36,1.86c-1.68,0.24 -3.39,0.37 -5.14,0.37 -1.75,-0 -3.47,-0.13 -5.15,-0.37 -0.18,-0.03 -0.33,-0.2 -0.33,-0.39l0,-33.41c0,-0.19 0.15,-0.34 0.34,-0.34l10.29,-0c0.19,-0 0.34,0.15 0.34,0.34l0,33.41c0,0.19 -0.15,0.36 -0.33,0.39m-16.97,-1.63c-13.47,-4.73 -23.28,-17.28 -23.95,-32.17 -0.01,-0.19 0.14,-0.34 0.33,-0.34l23.61,-0c0.19,-0 0.34,0.15 0.34,0.34l0,31.94c0,0.19 -0.14,0.29 -0.32,0.23m-8.58,-79.97c2.99,-0.36 5.39,-1.16 7.43,-1.82 3.55,-1.17 5.87,-1.93 9.65,-0.24 0.17,0.08 0.31,0.29 0.31,0.48L38.82,32.08c0,0.19 -0.14,0.29 -0.32,0.24 -4.64,-1.34 -8.12,-0.2 -11.51,0.92 -1.72,0.57 -3.48,1.14 -5.55,1.47 -0.19,0.03 -0.34,-0.1 -0.34,-0.29L21.09,9.44c0,-0.19 0.15,-0.35 0.34,-0.38m23.72,-2.06c3.79,-1.69 6.11,-0.93 9.65,0.24 2.04,0.66 4.44,1.46 7.43,1.82 0.19,0.02 0.34,0.19 0.34,0.38l0,24.98c0,0.19 -0.15,0.32 -0.34,0.29 -2.07,-0.32 -3.83,-0.9 -5.56,-1.47 -3.39,-1.12 -6.86,-2.25 -11.51,-0.92 -0.18,0.05 -0.32,-0.05 -0.32,-0.24L44.84,7.49c0,-0.19 0.14,-0.4 0.31,-0.48M68.25,3.24l-2.67,-0c-3.66,-0 -6.32,-0.87 -8.91,-1.72 -4.08,-1.34 -8.31,-2.73 -14.54,0.25 -0.17,0.08 -0.44,0.08 -0.61,-0 -6.24,-2.98 -10.46,-1.59 -14.54,-0.25 -2.58,0.85 -5.25,1.72 -8.91,1.72l-2.67,-0c-0.19,-0 -0.34,0.15 -0.34,0.34l0,10.03c0,0.19 -0.15,0.34 -0.34,0.34l-14.39,-0c-0.19,-0 -0.34,0.15 -0.34,0.34l0,40.94c0,23.07 18.77,41.83 41.83,41.83 23.06,-0 41.82,-18.77 41.82,-41.83L83.66,14.29c0,-0.19 -0.15,-0.34 -0.34,-0.34L68.92,13.95c-0.19,-0 -0.34,-0.15 -0.34,-0.34l0,-10.03c0,-0.19 -0.15,-0.34 -0.34,-0.34"/>
  <!-- I -->
  <path fill="#9c182f" fill-rule="nonzero" d="m111.56,25.84 l3.81,2.6c0.15,0.11 0.28,0.34 0.28,0.53l0,39.05c0,0.19 -0.12,0.43 -0.27,0.54l-3.83,2.85c-0.15,0.11 -0.27,0.35 -0.27,0.54l0,0.5c0,0.19 0.15,0.34 0.34,0.34l17.76,-0c0.19,-0 0.34,-0.15 0.34,-0.34l0,-0.57c0,-0.19 -0.12,-0.43 -0.27,-0.54l-3.82,-2.79c-0.15,-0.11 -0.27,-0.35 -0.27,-0.54l0,-39.05c0,-0.19 0.13,-0.42 0.28,-0.53L129.44,25.84c0.15,-0.11 0.28,-0.34 0.28,-0.53l0,-0.71c0,-0.19 -0.15,-0.34 -0.34,-0.34L111.62,24.26c-0.19,-0 -0.34,0.15 -0.34,0.34L111.28,25.31C111.28,25.5 111.4,25.74 111.56,25.84"/>
  <!-- R -->
  <path fill="#9c182f" fill-rule="nonzero" d="m156.57,49.57c-0.19,-0 -0.34,-0.15 -0.34,-0.34l0,-17.76c0,-0.19 0.15,-0.34 0.34,-0.34l17.2,-0c5.27,-0 9.57,2.91 9.57,8.6C183.34,45.89 178.07,49.57 171.76,49.57ZM179.46,55.52c-0.15,-0.11 -0.13,-0.23 0.05,-0.27 8.61,-2.09 13.95,-8.48 13.95,-16.21 0,-7.63 -6.1,-14.77 -16.64,-14.77l-34.33,-0c-0.19,-0 -0.34,0.15 -0.34,0.34l0,0.57c0,0.19 0.12,0.43 0.28,0.53L146.25,28.44c0.15,0.11 0.28,0.35 0.28,0.53l0,39.05c0,0.19 -0.12,0.43 -0.27,0.54l-3.82,2.79c-0.15,0.11 -0.27,0.35 -0.27,0.54l0,0.57c0,0.19 0.15,0.34 0.34,0.34L159.64,72.79c0.19,-0 0.34,-0.15 0.34,-0.34l0,-0.57c0,-0.19 -0.12,-0.44 -0.26,-0.56l-3.23,-2.75c-0.14,-0.12 -0.26,-0.37 -0.26,-0.56l0,-11.66c0,-0.19 0.15,-0.34 0.34,-0.34l11.8,-0c0.19,-0 0.44,0.11 0.56,0.25 2.1,2.43 4.52,6.1 7.33,9.45 4.09,5.06 8.04,7.83 13.66,7.83 3.74,-0 6.26,-1.74 7.81,-4.35 0.09,-0.16 0.07,-0.41 -0.04,-0.56l-1.66,-2.1c-0.12,-0.15 -0.31,-0.15 -0.45,-0.03 -0.42,0.36 -1.38,1.01 -2.88,1.01 -4.95,-0 -9.1,-9.02 -13.24,-12.01"/>
  <!-- B -->
  <path fill="#9c182f" fill-rule="nonzero" d="m220.45,66.48c-0.19,-0 -0.34,-0.15 -0.34,-0.34l0,-16.52c0,-0.19 0.15,-0.34 0.34,-0.34l17.76,-0c6.93,-0 10.05,3.67 10.05,8.53C248.26,63.3 244.31,66.48 236.96,66.48ZM220.45,31.13l17.27,-0c4.99,-0 7.76,2.08 7.76,6.24 0,4.37 -2.98,6.72 -7.97,6.72L220.45,44.09c-0.19,-0 -0.34,-0.15 -0.34,-0.34l0,-12.29c0,-0.19 0.15,-0.34 0.34,-0.34M248.59,45.25c4.12,-1.25 6.89,-4.42 6.89,-10.03 0,-7.76 -5.48,-10.95 -15.32,-10.95l-33.77,-0c-0.19,-0 -0.34,0.15 -0.34,0.34l0,0.71c0,0.19 0.13,0.42 0.28,0.53l3.81,2.6c0.15,0.11 0.28,0.34 0.28,0.53L210.41,68.02c0,0.19 -0.12,0.43 -0.27,0.54l-3.82,2.79c-0.15,0.11 -0.27,0.35 -0.27,0.54l0,0.57c0,0.19 0.15,0.34 0.34,0.34l33.77,-0c12.2,-0 17.75,-7 17.75,-14.97 0,-7.45 -4.76,-10.93 -9.31,-12.38 -0.18,-0.06 -0.18,-0.14 0,-0.19"/>
  <!-- S -->
  <path fill="#9c182f" fill-rule="nonzero" d="m277.7,36.47c0,-3.12 3.33,-6.17 11.58,-6.17 10.49,-0 17.84,4.35 21.38,9.77 0.1,0.16 0.33,0.29 0.52,0.29l0.78,-0c0.19,-0 0.32,-0.15 0.3,-0.34L310.73,25.64C310.71,25.46 310.55,25.3 310.36,25.3L310.2,25.3c-0.19,-0 -0.45,0.1 -0.57,0.25 -0.39,0.5 -0.97,1.34 -2.41,1 -3.54,-0.76 -8.6,-3.74 -18.16,-3.74 -13.8,-0 -21.56,6.17 -21.56,14.7 0,9.22 10.75,12.62 19.69,14.56 9.43,2.08 16.78,3.19 16.78,8.18 0,3.95 -4.16,7.14 -12.62,7.14 -10.76,-0 -18.98,-5.56 -22.75,-10.81 -0.11,-0.15 -0.35,-0.28 -0.53,-0.28l-0.71,-0c-0.19,-0 -0.32,0.15 -0.29,0.33l1.92,13.89c0.03,0.19 0.19,0.31 0.38,0.28 5.81,-0.95 10.71,3.46 22.68,3.46 14.7,-0 22.12,-5.75 22.12,-15.18 0,-9.15 -9.43,-12.06 -21.21,-14.77C283.73,42.15 277.7,41.18 277.7,36.47"/>
</svg>
